<svg xmlns="http://www.w3.org/2000/svg" viewBox="0 0 77.39 66.62"><defs><style>.cls-1{fill:#eb5c63;}.cls-2{fill:#cc4e5a;}</style></defs><g id="Layer_2" data-name="Layer 2"><g id="Layer_1-2" data-name="Layer 1"><path class="cls-1" d="M74.81.57a3.55,3.55,0,0,0-4,1.49L48.84,35.75,43,29.94a6.35,6.35,0,0,0-9,0L28,36,6.27,1.59A3.4,3.4,0,0,0,0,3.4V63a3.63,3.63,0,0,0,6.2,2.57L24,47.57l3.06-3.08,1.14,1.8,6.89,10.89a3.61,3.61,0,0,0,6.09,0L49,45.29l.74-1.15,3.08,3.07L71.22,65.56a3.58,3.58,0,0,0,2.55,1.06,3.49,3.49,0,0,0,1.38-.29A3.61,3.61,0,0,0,77.39,63V4A3.58,3.58,0,0,0,74.81.57M21.12,43,5.33,58.86V10.05L23.2,38.34l1,1.55ZM38.19,52.1,30.94,40.63l6.88-6.92a1,1,0,0,1,.72-.31,1,1,0,0,1,.71.31l6.62,6.59Zm33.87,6.8L55.76,42.65l-3.07-3.06L72.06,9.83Z"/><polygon class="cls-2" points="55.77 42.65 52.8 47.2 49.72 44.14 52.69 39.59 55.77 42.65"/><polygon class="cls-2" points="27.09 44.49 24.03 47.57 21.12 42.98 24.18 39.89 27.09 44.49"/></g></g></svg>